# xmcd CD database file
#
# Track frame offsets:
#	150
#	11337
#	26550
#	44945
#	58630
#	72567
#	85647
#	98357
#	112177
#	124512
#	138457
#	153327
#	167332
#	180827
#	191677
#	205265
#	215820
#	227235
#	241140
#	252517
#	266585
#	277600
#	290252
#
# Disc length: 4017 seconds
#
# Revision: 3
# Processed by: cddbd v1.5PL3 Copyright (c) Steve Scherf et al.
# Submitted via: CDex 1.51
#
DISCID=410faf17
DTITLE=Django Reinhardt - Swing De Paris - CD3 - Finesse
DYEAR=1995
DGENRE=Jazz
TTITLE0=Swing In
TTITLE1=Impro
TTITLE2=Bolero De Django [Reinhardt, Stèphane Grappelli]
TTITLE3=My Serenade [Reinhardt]
TTITLE4=You Rascal You [Theard]
TTITLE5=Christmas Swing [Reinhardt]
TTITLE6=Tea For Two [Ceasar, Youmans]
TTITLE7=Blues [Brun]
TTITLE8=It Had To Be You [Kahn, Jones]
TTITLE9=I´m Coming Virginia [Heywood, Cook, Mares, Rappolo, Schoebel]
TTITLE10=Farewell Blues [Heywood, Cook, Mares, Rappolo, Schoebel]
TTITLE11=Blue Light Blues [Carter]
TTITLE12=I Got Rhythm [G. and I. Gershwin]
TTITLE13=Montmartre [Stewart]
TTITLE14=Low Cotton [Stewart]
TTITLE15=Finesse (Night Wind) [Taylor]
TTITLE16=I Know That You Know [Caldwell, Youmans]
TTITLE17=Solid Old Man [Stewart, Taylor, Bigard]
TTITLE18=I´ll See You In My Dreams [Kahn, Jones]
TTITLE19=Echoes Of Spain [Reinhardt]
TTITLE20=Naguine [Reinhardt]
TTITLE21=Tears [Reinhardt, Grappelli]
TTITLE22=Limehouse Blues [Furber, Braham]
EXTD=YEAR: 1995
EXTT0=
EXTT1=
EXTT2=
EXTT3=
EXTT4=
EXTT5=
EXTT6=
EXTT7=
EXTT8=
EXTT9=
EXTT10=
EXTT11=
EXTT12=
EXTT13=
EXTT14=
EXTT15=
EXTT16=
EXTT17=
EXTT18=
EXTT19=
EXTT20=
EXTT21=
EXTT22=
PLAYORDER=
